<svg xmlns="http://www.w3.org/2000/svg" width="160" height="111" viewBox="0 0 160 111">
    <defs>
        <linearGradient id="a" x1="50%" x2="50%" y1="99.991%" y2="-.003%">
            <stop offset="0%" stop-color="gray" stop-opacity=".25"/>
            <stop offset="54%" stop-color="gray" stop-opacity=".12"/>
            <stop offset="100%" stop-color="gray" stop-opacity=".1"/>
        </linearGradient>
    </defs>
    <g fill="none" fill-rule="evenodd">
        <path fill="#0F93F6" fill-rule="nonzero" d="M1.366 58.024c2.823-4.61 9.205-3.806 13.732-1.4 4.526 2.407 9.042 6 14.023 5.31 4.2-.583 7.644-4.246 9.505-8.47 1.86-4.226 2.407-8.99 2.93-13.656L43.53 22.21c.24-2.147.525-4.412 1.732-6.11 1.594-2.24 4.517-2.929 7.018-2.255 2.5.673 4.632 2.479 6.457 4.494 5.843 6.45 9.154 15.171 14.263 22.35 1.04 1.462 2.215 2.907 3.769 3.613 2.24 1.015 4.811.296 7-.833 7.14-3.681 11.936-11.192 16.65-18.2 2.293-3.407 5.089-7.05 8.904-7.42 4.014-.4 7.498 3.02 9.857 6.643 7.571 11.653 9.194 27.563 18.34 37.727 1.136 1.26 2.389 2.425 3.832 3.207a9.89 9.89 0 0 0 1.484.651c7.98 2.762 10.64 13.85 4.738 20.425-.128.14-.258.28-.39.42-.876.925-1.869 1.8-3.053 2.076-1.102.255-2.24-.04-3.332-.357-6.98-2.037-13.877-5.15-21.094-5-7.022.14-13.683 3.384-20.627 4.552-4.67.785-9.42.629-14.14.46a4016.131 4016.131 0 0 1-47.16-1.975c-7.8-.358-15.604-.7-23.403-1.099-6.009-.312-9.837-1-10.534-7.973-.61-6.107-6.093-13.668-2.474-19.582z" opacity=".1"/>
        <ellipse cx="110.726" cy="104.936" fill="#30374E" fill-rule="nonzero" rx="37.799" ry="5.282"/>
        <path fill="#0F93F6" fill-rule="nonzero" d="M20.964 82.148s1.848-.42 3.059.822c0 0-.779.7-2.61-.076l-.45-.746zM20.76 82.13s-1.096 1.55-.401 3.143c0 0 .946-.455.92-2.443l-.52-.7zM19.527 79.792s.657-1.421 3.78.296c0 0-.336.95-1.663.964-1.327.014-1.725-.562-2.117-1.26zM19.328 79.705s-1.563-.073-1.475 3.489c0 0 .998.14 1.621-1.034.623-1.173.293-1.779-.146-2.455zM18.24 76.933s.7-2.475 3.985-.963c0 0-.574 2.266-3.612 1.77l-.374-.807zM17.02 73.385s1.481-2.553 4.548-.481c0 0-.866 2.361-4.24 1.337l-.308-.856zM16.44 69.97s1.768-2.374 4.81-.324c0 0-1.688 2.091-4.772.896l-.038-.573zM15.917 66.648s1.786-2.472 4.702-.44c0 0-2.055 2.216-4.666.99l-.036-.55zM15.891 63.672s1.841-3.154 4.571-1.284c0 0-2.018 2.74-4.531 1.857l-.04-.573zM16.14 60.175s1.96-3.136 4.632-1.005c0 0-2.394 2.765-4.602 1.56l-.03-.555zM16.647 57.03s2.38-2.983 4.697-2.011c0 0-2.475 3.164-4.76 2.766l.063-.755zM17.347 54.034s2.736-3.64 4.532-2.606c0 0-2.003 2.812-4.701 3.269l.17-.663zM18.414 50.543s2.404-2.985 4.34-2.414c0 0-2.023 3.065-4.634 3.315l.294-.901zM19.373 47.28s2.685-2.885 3.964-2.495c0 0-1.87 3.13-4.05 3.1l.086-.606zM20.321 44.261s2.253-3.381 3.615-3.22c0 0-1.304 2.967-3.593 3.546l-.022-.326zM21.3 40.214s2.014-2.613 3.193-2.686c0 0-1.5 3.408-3.23 3.5l.037-.814zM21.86 37.524l1.76-5.276s.42 4.634-1.96 6.246l.2-.97zM22.334 31.804s.062-4.31-.186-4.644c0 0 1.746 3.464.3 6.54l-.114-1.896zM18.15 76.881s-2.277-1.207-3.468 2.202c0 0 2.03 1.16 3.78-1.373l-.312-.829zM16.94 73.252s-2.76-1.043-3.829 2.503c0 0 2.166 1.281 4.131-1.646l-.302-.857zM16.33 70.183s-2.071-2.115-4.81.327c0 0 1.95 1.846 4.847.25l-.037-.577zM15.85 66.654s-2.1-2.213-4.719.19c0 0 2.333 1.923 4.76.357l-.04-.547z"/>
        <path fill="#0F93F6" fill-rule="nonzero" d="M15.897 63.756s-1.59-3.286-4.456-1.634c0 0 1.8 2.888 4.373 2.204l.083-.57zM16.303 60.15s-1.586-3.346-4.488-1.55c0 0 2.052 3.025 4.387 2.09l.101-.54zM16.937 57.028s-.79-3.731-3.297-3.902c0 0 .795 3.938 3.012 4.603l.285-.701zM17.412 54.037s-.514-4.523-2.585-4.544c0 0 .301 3.44 2.396 5.2l.189-.656zM18.62 50.399s-.87-3.733-2.866-4.06c0 0 .49 3.64 2.734 5l.132-.94zM19.608 47.29s-.28-3.93-1.526-4.426c0 0-.505 3.609 1.211 4.953l.315-.526zM20.41 44.212s-.44-4.039-1.723-4.525c0 0-.21 3.233 1.554 4.802l.17-.277zM21.496 40.524s-.23-3.291-1.17-4.005c0 0-.64 3.667.75 4.698l.42-.693z"/>
        <path fill="#0F93F6" fill-rule="nonzero" d="M21.74 37.369l-1.233-5.424s-.872 4.57 1.34 6.41l-.108-.986zM21.547 31.909s-2.468-3.54-2.448-3.951c0 0 .495 3.847 3.417 5.585l-.969-1.634zM21.74 30.804s-2.445-5.094-3.421-5.46c0 0 3.093 1.32 3.585 5.292l-.165.168z"/>
        <path fill="#444053" fill-rule="nonzero" d="M21.255 41.055l-.14-.035c1.379-5.88 1.573-9.587.546-10.438l.095-.115c1.084.901.913 4.564-.501 10.588z"/>
        <path fill="#444053" fill-rule="nonzero" d="M17.296 54.867l-.217-.06c.152-.54.317-1.09.494-1.632 1.54-4.721 2.82-9.1 3.605-12.452l.178-.105c-.787 3.36-2.032 7.9-3.569 12.625-.175.54-.34 1.087-.491 1.624z"/>
        <path fill="#444053" fill-rule="nonzero" d="M23.883 86.283c-.031-.029-3.111-3.061-5.477-8.433a32.532 32.532 0 0 1-2.606-9.908c-.42-4.274.154-9.118 1.4-13.566l.18.185c-2.8 9.983-.867 18.247 1.292 23.156 2.342 5.32 5.387 8.323 5.418 8.352l-.207.214z"/>
        <path fill="#0F93F6" fill-rule="nonzero" d="M27.273 70.294s1.12-.256 1.851.497c0 0-.472.42-1.578-.046l-.273-.451zM27.152 70.284s-.661.938-.241 1.9c0 0 .571-.28.56-1.477l-.32-.423zM26.407 68.869s.396-.858 2.282.18c0 0-.203.573-1.005.581-.803.009-1.038-.338-1.277-.761zM26.286 68.817s-.946-.043-.893 2.108c0 0 .604.084.98-.624.377-.708.178-1.075-.087-1.484zM25.624 67.141s.43-1.496 2.412-.585c0 0-.345 1.37-2.182 1.07l-.23-.485zM24.89 64.996s.895-1.54 2.75-.29c0 0-.525 1.427-2.563.807l-.186-.517zM24.54 62.931s1.069-1.435 2.907-.196c0 0-1.02 1.26-2.884.542l-.024-.346zM24.223 60.924s1.08-1.495 2.843-.266c0 0-1.242 1.34-2.82.598l-.023-.332zM24.209 59.123s1.12-1.905 2.762-.775c0 0-1.22 1.656-2.74 1.12l-.022-.345zM24.354 57.01s1.189-1.896 2.8-.612c0 0-1.447 1.671-2.783.943l-.017-.33zM24.665 55.11s1.438-1.804 2.84-1.216c0 0-1.497 1.913-2.875 1.672l.035-.456zM25.088 53.298s1.653-2.2 2.74-1.576c0 0-1.211 1.7-2.842 1.976l.102-.4zM25.733 51.19s1.454-1.805 2.627-1.46c0 0-1.222 1.853-2.8 2.004l.173-.544zM26.313 49.214s1.623-1.743 2.395-1.508c0 0-1.128 1.892-2.447 1.875l.052-.367zM26.886 47.39s1.362-2.044 2.185-1.949c0 0-.787 1.794-2.171 2.145l-.014-.196zM27.48 44.943s1.217-1.58 1.93-1.624c0 0-.907 2.06-1.953 2.112l.022-.488zM27.817 43.316l1.062-3.186s.252 2.8-1.188 3.78l.126-.594zM28.104 39.858s.036-2.605-.114-2.807c0 0 1.056 2.093.18 3.954l-.066-1.147zM25.572 67.11s-1.374-.73-2.1 1.33c0 0 1.228.7 2.287-.828l-.187-.502zM24.843 64.91s-1.67-.63-2.316 1.513c0 0 1.31.774 2.498-.994l-.182-.52zM24.472 63.06s-1.25-1.278-2.908.196c0 0 1.18 1.12 2.932.151l-.024-.347zM24.184 60.927s-1.27-1.337-2.854.116c0 0 1.41 1.16 2.876.215l-.022-.331z"/>
        <path fill="#0F93F6" fill-rule="nonzero" d="M24.212 59.17s-.962-1.987-2.695-.989c0 0 1.089 1.746 2.644 1.333l.05-.344zM24.457 56.993s-.96-2.023-2.718-.937c0 0 1.24 1.83 2.653 1.26l.065-.323zM24.84 55.11s-.477-2.257-1.993-2.36c0 0 .48 2.38 1.82 2.782l.173-.422zM25.127 53.3s-.308-2.735-1.568-2.749c0 0 .182 2.08 1.448 3.146l.12-.398zM25.857 51.1s-.525-2.257-1.732-2.456c0 0 .297 2.2 1.653 3.023l.079-.567zM26.454 49.221s-.172-2.38-.92-2.677c0 0-.307 2.183.73 2.995l.19-.318zM26.94 47.36s-.266-2.442-1.041-2.736c0 0-.128 1.96.939 2.903l.102-.168zM27.595 45.13s-.14-1.989-.7-2.422c0 0-.387 2.218.453 2.841l.247-.419z"/>
        <path fill="#0F93F6" fill-rule="nonzero" d="M27.747 43.222l-.745-3.279s-.528 2.764.809 3.876l-.064-.597zM27.628 39.922s-1.491-2.137-1.48-2.388c0 0 .298 2.325 2.065 3.375l-.585-.987zM27.74 39.253s-1.479-3.08-2.068-3.297c0 0 1.87.798 2.167 3.2l-.1.097z"/>
        <path fill="#444053" fill-rule="nonzero" d="M27.45 45.45l-.088-.021c.84-3.555.952-5.796.33-6.31l.057-.07c.66.546.556 2.76-.3 6.4z"/>
        <path fill="#444053" fill-rule="nonzero" d="M25.057 53.802l-.131-.038c.092-.326.193-.658.3-.98.927-2.854 1.703-5.502 2.178-7.528l.107-.064a98.481 98.481 0 0 1-2.157 7.634c-.106.324-.206.65-.297.976z"/>
        <path fill="#444053" fill-rule="nonzero" d="M29.039 72.794c-.018-.018-1.88-1.85-3.311-5.098a19.7 19.7 0 0 1-1.575-5.99c-.256-2.584.094-5.513.848-8.202l.108.112c-1.693 6.035-.524 11.032.781 14 1.417 3.22 3.257 5.03 3.276 5.048l-.127.13z"/>
        <path fill="#142D4E" fill-rule="nonzero" d="M33.25 79.794c-.36.064-.711.165-1.05.3-7.552 3.016-7.426 22.756-7.426 22.756h-2.223s-.7-8.472-3.75-20.558c-2.749-10.874 8.523-20.62 10.812-22.467.257-.206.4-.315.4-.315 11.353 4.172 3.237 20.284 3.237 20.284z"/>
        <path fill="#FFF" fill-rule="nonzero" d="M30.84 59.853c-.263-.12-.533-.235-.82-.34l-.4.315c-2.29 1.848-13.56 11.593-10.812 22.467 3.05 12.086 3.743 20.555 3.743 20.555h1.25s-.693-8.472-3.75-20.558c-2.737-10.823 8.425-20.532 10.788-22.44z" opacity=".2"/>
        <path fill="#142D4E" fill-rule="nonzero" d="M70.706 82.295c-3.058 12.086-3.747 20.555-3.747 20.555h-2.227s.14-20.63-7.942-22.934a4.414 4.414 0 0 0-.534-.124s-8.12-16.113 3.237-20.282c0 0 .115.085.322.252 2.104 1.684 13.67 11.533 10.89 22.533z"/>
        <path fill="#000" fill-rule="nonzero" d="M33.25 79.794c-.36.064-.711.165-1.05.3a137.09 137.09 0 0 1-2.587-20.266c.257-.206.4-.315.4-.315 11.353 4.169 3.237 20.281 3.237 20.281zM59.82 59.765a126.14 126.14 0 0 1-3.026 20.16 4.414 4.414 0 0 0-.534-.125s-8.12-16.113 3.237-20.282c-.004-.005.11.08.322.247z" opacity=".1"/>
        <path fill="#E3E8F4" fill-rule="nonzero" d="M55.663 82.85a152.685 152.685 0 0 1-2.757 9.52s-5 5.209-17.08 0c0 0-1.207-3.403-2.534-9.186-2.922-12.716-6.426-36.949 1.04-61.84A92.645 92.645 0 0 1 43.737 0s6.379 7.323 11.06 21.34c4.682 14.017 7.661 34.73.866 61.51z"/>
        <circle cx="44.752" cy="41.104" r="10.028" fill="#AFC0E0" fill-rule="nonzero"/>
        <path fill="#0F93F6" fill-rule="nonzero" d="M51.864 41.11a7.112 7.112 0 0 1-14.222 0v-.17a7.12 7.12 0 0 1 5.18-6.68 7.354 7.354 0 0 1 1.713-.261h.213a7.112 7.112 0 0 1 7.116 7.11z"/>
        <path fill="#142D4E" fill-rule="nonzero" d="M54.796 21.34c-11.378 5.448-20.47 0-20.47 0A92.645 92.645 0 0 1 43.736 0s6.379 7.323 11.059 21.34zM55.663 82.85a150.244 150.244 0 0 1-2.758 9.515s-5.001 5.21-17.08 0c0 0-.392-1.105-.98-3.125a114.61 114.61 0 0 1-1.559-6.06s4.497 1.919 10.88 1.919c3.943.014 7.85-.751 11.497-2.25z"/>
        <path fill="#E3E8F4" fill-rule="nonzero" d="M53.885 89.24c-.31 1.033-.637 2.075-.98 3.125 0 0-5.001 5.21-17.08 0 0 0-.392-1.105-.98-3.125-.002 0 12.31 3.542 19.04 0z"/>
        <path fill="#FFF" fill-rule="nonzero" d="M42.826 34.25l-.015.01-5.166 6.67v.17c-.001 1.15.277 2.282.81 3.3l6.087-10.41-1.716.26zM44.475 40.27l-4.23 6.335a7.186 7.186 0 0 1-1.333-1.447l5.04-5.41.523.522z" opacity=".2"/>
        <path fill="#FFF" fill-rule="nonzero" d="M38.528 92.366s-1.207-3.403-2.534-9.185c-2.922-12.718-6.426-36.95 1.04-61.84a92.985 92.985 0 0 1 8.24-19.333C44.324.679 43.733 0 43.733 0a92.635 92.635 0 0 0-9.409 21.34c-7.466 24.89-3.962 49.122-1.04 61.84 1.327 5.782 2.534 9.185 2.534 9.185 4.773 2.057 8.44 2.488 11.13 2.259-2.299-.175-5.09-.824-8.421-2.259z" opacity=".2"/>
        <path stroke="#535461" stroke-width=".5" d="M131.317 102.05s6.544-8.142 6.11-16.297a15.827 15.827 0 0 1 2.595-9.669 26.626 26.626 0 0 1 3.08-3.78"/>
        <path fill="#0F93F6" fill-rule="nonzero" d="M142.855 67.17c-.468 1.135.232 5.274.232 5.274s3.412-2.447 3.88-3.582a2.223 2.223 0 1 0-4.112-1.693zM136.865 72.06c.226 1.208 3.064 4.302 3.064 4.302s1.54-3.908 1.309-5.116a2.224 2.224 0 0 0-4.373.815zM132.59 82.872c.803.928 4.816 2.167 4.816 2.167s-.65-4.148-1.453-5.078a2.223 2.223 0 0 0-3.36 2.91h-.003zM131.197 91.78c.634 1.051 4.379 2.95 4.379 2.95s.062-4.2-.573-5.25a2.224 2.224 0 1 0-3.806 2.3zM144.155 78.36c-1.14.454-5.272-.288-5.272-.288s2.48-3.386 3.622-3.843a2.224 2.224 0 1 1 1.65 4.13zM142.394 88.757c-1.224.094-4.945-1.85-4.945-1.85s3.38-2.491 4.605-2.585a2.225 2.225 0 0 1 .34 4.435zM139.296 98.627c-1.192.3-5.187-.988-5.187-.988s2.91-3.026 4.102-3.324a2.223 2.223 0 1 1 1.085 4.312z"/>
        <path fill="#000" fill-rule="nonzero" d="M142.855 67.17c-.468 1.135.232 5.274.232 5.274s3.412-2.447 3.88-3.582a2.223 2.223 0 1 0-4.112-1.693zM136.865 72.06c.226 1.208 3.064 4.302 3.064 4.302s1.54-3.908 1.309-5.116a2.224 2.224 0 0 0-4.373.815zM132.59 82.872c.803.928 4.816 2.167 4.816 2.167s-.65-4.148-1.453-5.078a2.223 2.223 0 0 0-3.36 2.91h-.003zM131.197 91.78c.634 1.051 4.379 2.95 4.379 2.95s.062-4.2-.573-5.25a2.224 2.224 0 1 0-3.806 2.3zM144.155 78.36c-1.14.454-5.272-.288-5.272-.288s2.48-3.386 3.622-3.843a2.224 2.224 0 1 1 1.65 4.13zM142.394 88.757c-1.224.094-4.945-1.85-4.945-1.85s3.38-2.491 4.605-2.585a2.225 2.225 0 0 1 .34 4.435zM139.296 98.627c-1.192.3-5.187-.988-5.187-.988s2.91-3.026 4.102-3.324a2.223 2.223 0 1 1 1.085 4.312z" opacity=".25"/>
        <path stroke="#535461" stroke-width=".5" d="M131.376 101.71s9.282-4.794 12.19-12.424a15.82 15.82 0 0 1 6.291-7.788 26.587 26.587 0 0 1 4.34-2.206"/>
        <path fill="#0F93F6" fill-rule="nonzero" d="M156.058 74.494c-.888.85-1.925 4.918-1.925 4.918s4.11-.855 4.998-1.704a2.226 2.226 0 1 0-3.073-3.22v.006zM148.602 76.54c-.28 1.195 1.057 5.18 1.057 5.18s2.98-2.95 3.269-4.153a2.223 2.223 0 0 0-4.326-1.028zM140.31 84.69c.36 1.175 3.526 3.933 3.526 3.933s1.088-4.06.73-5.23a2.224 2.224 0 0 0-4.255 1.297zM135.428 92.27c.154 1.22 2.808 4.471 2.808 4.471s1.758-3.812 1.603-5.031a2.223 2.223 0 0 0-4.411.56zM152.713 85.252c-1.227-.045-4.704-2.399-4.704-2.399s3.64-2.09 4.868-2.045a2.223 2.223 0 0 1-.164 4.444zM146.89 94.044c-1.158-.41-3.772-3.696-3.772-3.696s4.1-.906 5.257-.496a2.224 2.224 0 1 1-1.486 4.192zM140.056 101.812c-1.21-.208-4.34-3.006-4.34-3.006s3.888-1.584 5.097-1.376a2.223 2.223 0 0 1-.756 4.382h-.001z"/>
        <path fill="url(#a)" fill-rule="nonzero" d="M144.574 97.21l-7.195-10.434s-.14-2.583-.605-3.186c-.464-.604-.1-1.946-.1-1.946s.504-.738.067-.805c-.437-.067-.067-1.712-.067-1.712l-.034-2.617s.403-2.52.067-3.12a.99.99 0 0 1 .034-1.073s.403-1.443 0-1.812c-.403-.368-.303-2.618-.202-4.396.101-1.778-.707-2.784-.707-3.053 0-.269-2.66-2.885-2.66-3.12 0-.233-1.68-1.207-2.69-1.476-1.009-.269-1.513-.47-1.479-.604.034-.134-1.58-.67-1.58-.67s-1.413-.101-1.952-.807c-.54-.705-2.183-.907-2.23-.914l-.031-.14-.031-.151c.127-.214.245-.433.351-.658.033-.069.063-.14.093-.204.59-.027 1.194-.153 1.656-.514.48-.402.771-.984.805-1.609a3.527 3.527 0 0 0-.393-1.788c-.294-.604-.727-1.23-.579-1.885.066-.28.236-.532.322-.81.164-.525.013-1.101-.242-1.589-.255-.487-.609-.915-.892-1.387a5.418 5.418 0 0 1-.71-1.96c-.057-.364-.08-.748-.263-1.068a1.99 1.99 0 0 0-.589-.595 5.89 5.89 0 0 0-3.615-1.096c-.915.032-1.828.28-2.737.166-.547-.067-1.07-.262-1.599-.42-1.128-.333-2.429-.47-3.411.175-.983.646-1.374 1.915-2.039 2.908-.588.88-1.45 1.616-1.898 2.545 0-.017.008-.035.014-.053-.11.215-.194.443-.25.678-.172.73-.029 1.495.149 2.224.091.377.217.786.543.994.326.209.788.163 1.175.231l-.045.192a7.686 7.686 0 0 0 5.333 8.96v.204c-.001.193-.013.386-.035.577 0 0-3.381-.7-4.29-.224-.909.476-2.69.84-2.96 1.106-.268.266-.94.067-1.54 1.645-.599 1.578-.672 3.187-1.446 3.92-.774.734-1.176 1.242-1.21 1.78-.033.537.101.67-.202.84-.304.169-.74.872-.605 1.14 0 0 .168.671-.37 1.006-.537.334-.472 1.006-.472 1.006s-.201.74-.672.906c-.47.167-.774 1.276-.774 1.276l-1.53 1.757-3.023-3.346a1.274 1.274 0 0 0-1.799-.093l-1.484 1.339a2.932 2.932 0 0 0-1.485.884c-.323.332-.584.72-.769 1.146l-.813.73a2.065 2.065 0 0 0-.209 2.28l1.937 2.14.012.018c-.732.093-1.379.328-1.873.763-2.891 2.55-2.926 4.9-2.488 5.971.438 1.071 4.102 5.201 4.102 5.201s2.13 2.768 5.204 4.241l-.024.024c-.06.064-.12.14-.179.21l-.05.064-.047.065-.054.08a1.982 1.982 0 0 0-.1.162l-.039.066c-.022.042-.046.085-.068.13l-.023.043a4.423 4.423 0 0 0-.082.182l-.028.069c-.017.043-.035.088-.052.14-.017.052-.021.057-.031.087-.01.029-.03.086-.043.131-.014.045-.02.063-.028.094l-.041.148-.024.091a4.803 4.803 0 0 0-.052.241c0 .031-.01.063-.016.095a3.148 3.148 0 0 0-.03.173c-.007.04-.011.08-.017.121l-.02.167-.013.129c0 .061-.011.126-.016.19 0 .04 0 .079-.007.118 0 .106-.01.213-.012.325-.067 3.92.162 4.495.162 4.495s.475 1.25 1.785 1.34c.193.014.386.004.576-.031 1.748-.302 5.85-1.007 7.296-.738.87.161 2.48-.077 3.626-.294l.301-.057.21.666.665-.182.56.326.357.205c.664 2.251 3.36 1.484 3.36 1.484l.633.367 6.49.168s1.4.84 2.298 1.103c.107.032.216.056.326.071.602.048 1.206.06 1.809.034.497-.013.882-.034.882-.034s-.066-1.762-.161-3.735c2.48-.104 4.68-.259 6.012-.493 3.466-.609 4.912-3.76 5.444-5.444.16.688.274 1.386.34 2.09.142.614.322 1.22.54 1.811.189.477.437.927.739 1.342 2.556-.873 1.009-2.18.47-2.751-.539-.572.371-1.04.371-1.04s.7-.47.638-.906c-.061-.437-.1-.906 2.186-.873 2.286.034 2.191-1.883 2.191-1.883zm-35.513-21.42c.03.192.349 2.26.637 2.8.06.115.084.523.076 1.105a82.532 82.532 0 0 0-2.766-.165c.04.049.066.109.072.172l-.212-.048-.31-.075 2.496-3.797.007.008zm-4.944 7.868l2.345.373.197.03a7.716 7.716 0 0 0-.122 1.108c0 .035.053.077.129.126a3.02 3.02 0 0 0-.046.56c.038.186 1.134.587 2.391.92a7.364 7.364 0 0 1-.05.192c-1.11-.584-2.86-.857-3.062-1.291-.202-.434-6.16-2.52-6.16-2.52s-.217-.115-.592-.297l1.568.297.43-.044c.978.245 1.97.426 2.972.544v.002z"/>
        <path fill="#434175" fill-rule="nonzero" d="M136.919 98.67s-.933 5.633-5.666 6.466c-4.734.833-20.533.666-20.533.666s-9.032-1.299-12.299-8.932c-3.266-7.633-5.366-10.666-2.566-10.8 2.8-.132 17.9 5.1 18.76 5.167.861.065 23.137-11.6 22.304 7.434z"/>
        <path fill="#000" fill-rule="nonzero" d="M136.919 98.67s-.933 5.633-5.666 6.466c-4.734.833-20.533.666-20.533.666s-9.032-1.299-12.299-8.932c-3.266-7.633-5.366-10.666-2.566-10.8 2.8-.132 17.9 5.1 18.76 5.167.861.065 23.137-11.6 22.304 7.434z" opacity=".05"/>
        <path fill="#565387" fill-rule="nonzero" d="M94.549 104.936s.472 1.243 1.77 1.331a2.3 2.3 0 0 0 .57-.03c1.733-.3 5.8-1 7.232-.734.862.16 2.457-.077 3.592-.292.756-.14 1.308-.28 1.308-.28s-1.333-4.432-1.501-4.565c-.168-.133-5.999-3.633-5.999-3.633l-4.62-.332h-.014s-.855.058-1.565.92c-.489.59-.907 1.558-.935 3.146-.065 3.902.162 4.469.162 4.469z"/>
        <path fill="#000" fill-rule="nonzero" d="M94.549 104.936s.472 1.243 1.77 1.331a18.976 18.976 0 0 1-1.26-1.831l.023-3.233c-.205-2.42.927-3.97 1.82-4.798h-.014s-2.433.166-2.5 4.06c-.067 3.895.161 4.47.161 4.47z" opacity=".05"/>
        <path fill="#000" fill-rule="nonzero" d="M114.587 97.87l4.3-3.36 6.766-6.667s-.731-.035-1.833-.083c-.28.175-1.043.726-1.07 1.4-.034.815-1.83.056-2.763.523-.932.466-5.5 6.31-6.3 6.273-.8-.038-1.432-.406-1.767.161 0 .013-.015.024-.024.036l2.691 1.717zM95.323 97.324c.153.074.307.14.465.213 3.268 1.4 7.3 4.34 7.6 4.866.183.325 2.52 1.744 4.325 2.808.756-.14 1.308-.28 1.308-.28s-1.333-4.432-1.501-4.565c-.168-.133-5.999-3.633-5.999-3.633l-4.62-.332h-.014s-.854.06-1.564.923z" opacity=".1"/>
        <path fill="#434175" fill-rule="nonzero" d="M86.257 87.77c.432 1.067 4.06 5.168 4.06 5.168s2.299 2.998 5.566 4.398c3.268 1.4 7.3 4.34 7.6 4.867.193.343 2.8 1.91 4.63 2.989l.41.24.91.527.482.28s1.12-.896 2.228-1.798c1.107-.901 2.188-1.785 2.206-1.835.032-.1.465-1.233.366-1.3-.052-.034-.28-.496-.7-1.031a4.735 4.735 0 0 0-1.699-1.4c-1.54-.7-2.199-2.293-2.199-2.293s-.14-.107-.368-.247c-.395-.249-1.03-.607-1.498-.667-.735-.093-2.1-1.592-2.1-1.592s-.934-.6-1.3-1.367c-.35-.73-5.52-4.28-5.998-4.608l12.531 8.047 2.999 1.928 4.3-3.36 6.767-6.667s-.91-.045-2.24-.101c-3.289-.14-9.13-.365-9.867-.199-.601.14-1.22.18-1.834.12 0 0-1.664.075-2.764-.506-1.1-.581-2.835-.853-3.035-1.283-.2-.43-6.1-2.499-6.1-2.499s-8.032-4.265-10.899-1.731c-2.867 2.534-2.888 4.855-2.454 5.92z"/>
        <path fill="#EE8E9E" fill-rule="nonzero" d="M112.154 63.307l1.033 3.432 1.333 7.733 4.9.333 1.418-2.352 1.421-2.348s.882-3.125 1.516-6.147c.56-2.674.927-5.27.317-5.551-.54-.251-.896-1.151-1.12-2.12a9.772 9.772 0 0 1-.081-.363c-.164-.82-.272-1.65-.325-2.485 0 0-10.266-.532-8.833 3.7.256.724.387 1.485.387 2.252a5.352 5.352 0 0 1-.035.572 4.802 4.802 0 0 1-1.931 3.344z"/>
        <path fill="#E3E8F4" fill-rule="nonzero" d="M110.02 62.74l.367 5.832.833 4.966.934 2.3.833 12.583s8.037.93 9.992-.017a.86.86 0 0 0 .354-.28c2.36-3.56 1.586-13.886 1.586-13.886l.9-6.668-.6-3.461-1.45-.154-1.12-.12s-.251.312-.615.792c-.989 1.305-2.8 3.87-2.684 4.942.165 1.467-.2 2.966-.767 3.2-.567.234-1.033.633-1.133.234-.1-.399-.2-.5-.1-1.067.099-.567-.435-2.3-.435-2.3s-.898-2.033-.84-2.9c.06-.866-.099-1.867-.366-2.1-.268-.232-.633-.467-.334-1.54.3-1.072-1.314-3.142-1.314-3.142l-4.04 2.786z"/>
        <path fill="#000" fill-rule="nonzero" d="M120.637 77.307l.333 9.966 1.925 1.067a.861.861 0 0 0 .354-.28c2.362-3.566 1.588-13.89 1.588-13.89l.9-6.668-.6-3.459-1.451-.154c.56-2.674.927-5.27.318-5.551-.542-.25-.898-1.15-1.129-2.12l-1.036 7.056s.087.636.118 1.291c.024.487.015.98-.084 1.242-.234.6-.067 1.667-.067 1.667-.601 1.059-.9 3.02-1.048 4.914-.197 2.519-.121 4.919-.121 4.919z" opacity=".1"/>
        <path fill="#142D4E" fill-rule="nonzero" d="M122.907 56.064s1.68.209 2.212.909c.532.7 1.934.797 1.934.797s1.6.533 1.566.666c-.033.133.467.335 1.468.6 1 .267 2.66 1.234 2.66 1.468 0 .234 2.633 2.832 2.633 3.1 0 .267.8 1.26.7 3.032-.1 1.772-.2 4 .2 4.366.4.367 0 1.8 0 1.8a.98.98 0 0 0-.02 1.068c.332.6-.067 3.1-.067 3.1l.033 2.6s-.367 1.633.067 1.7c.434.067-.067.8-.067.8s-.367 1.334.1 1.933c.468.599.6 3.167.6 3.167l7.14 10.36s.1 1.9-2.166 1.866c-2.267-.034-2.24.434-2.167.866.072.433-.633.9-.633.9s-.9.467-.367 1.034 2.066 1.866-.466 2.733c-.3-.412-.546-.86-.734-1.333a15.08 15.08 0 0 1-.533-1.8s-.234-2.533-.7-2.866c-.466-.334-.4-1.934-.4-1.934s.666-1.299-.267-1.832c-.932-.534-14.48-8.027-14.48-8.027l-.333-9.966s-.234-7.366 1.166-9.832c0 0-.166-1.067.067-1.666.234-.6-.033-2.534-.033-2.534l.887-7.075z"/>
        <path fill="#000" fill-rule="nonzero" d="M114.171 60.063s-3.35-.69-4.25-.224c-.9.466-2.66.84-2.94 1.1-.28.26-.934.067-1.533 1.634-.6 1.567-.668 3.165-1.434 3.899-.765.734-1.166 1.233-1.2 1.767-.033.533.1.666-.2.84-.3.173-.733.866-.6 1.134.133.267 6.945 6.125 6.945 6.125s.335 2.24.634 2.8c.3.56-.333 8.366-1 8.9-.666.533 4.5.484 4.5.484s.233-5.117.433-5.384c.2-.268-.14-5.74-.14-5.74s-.034-4.667.4-5.9c.434-1.233.385-5.328.385-5.328s.384-2.46.85-3.034c.466-.574-.85-3.073-.85-3.073z" opacity=".1"/>
        <path fill="#142D4E" fill-rule="nonzero" d="M114.072 59.963s-3.352-.69-4.252-.224c-.9.467-2.66.833-2.933 1.1-.273.268-.932.067-1.54 1.633-.607 1.567-.666 3.167-1.433 3.9-.768.734-1.167 1.234-1.2 1.767-.034.534.1.667-.199.833-.3.167-.734.867-.6 1.133.132.266 6.932 6.133 6.932 6.133s.333 2.24.633 2.8c.3.56-.333 8.365-1 8.899-.666.533 4.5.484 4.5.484s.234-5.117.434-5.383c.2-.266-.14-5.74-.14-5.74s-.032-4.666.4-5.9c.433-1.233.385-5.333.385-5.333s.384-2.46.849-3.033c.465-.572-.836-3.069-.836-3.069z"/>
        <path fill="#000" fill-rule="nonzero" d="M113.72 57.14c.255.723.386 1.484.386 2.25a7.648 7.648 0 0 0 8.77-3.466c-.163-.82-.271-1.65-.324-2.485 0 0-10.265-.532-8.833 3.7z" opacity=".1"/>
        <path fill="#EE8E9E" fill-rule="nonzero" d="M108.654 51.873a7.633 7.633 0 1 0 15.266-.014 7.633 7.633 0 0 0-15.266.014z"/>
        <path fill="#142D4E" fill-rule="nonzero" d="M103.754 69.538l-1.833.567s.167.666-.366 1c-.534.333-.467 1-.467 1s-.2.733-.666.9c-.466.166-.767 1.26-.767 1.26l-1.533 1.766s-.567.466-.466.7c.1.234-.601.3-.601.3l.367 5.939 3.167.6 1.96-.2 1.6-.6 1.4-.84.638-1.62 2.8-4.266-5.233-6.506z"/>
        <path fill="#EE8E9E" fill-rule="nonzero" d="M97.521 77.51s-4.06-5.868-7.1-2.701c-3.039 3.167 1.234 8.3 2.234 8.133 1-.167 5.766-.433 5.766-.433l-.9-5z"/>
        <rect width="8.599" height="9.772" x="89.967" y="73.86" fill="#30374E" fill-rule="nonzero" rx="1.767" transform="rotate(-42.05 94.267 78.746)"/>
        <rect width="8.599" height="9.772" x="89.967" y="73.86" fill="#000" fill-rule="nonzero" opacity=".1" rx="1.767" transform="rotate(-42.05 94.267 78.746)"/>
        <rect width="8.599" height="9.772" x="90.082" y="73.377" fill="#30374E" fill-rule="nonzero" rx="1.767" transform="rotate(-42.05 94.381 78.263)"/>
        <circle cx="94.275" cy="78.504" r="1.9" fill="#6C63FF" fill-rule="nonzero"/>
        <circle cx="94.275" cy="78.504" r="1.9" fill="#000" fill-rule="nonzero" opacity=".1"/>
        <circle cx="94.381" cy="78.263" r="1.9" fill="#6C63FF" fill-rule="nonzero"/>
        <path fill="#EE8E9E" fill-rule="nonzero" d="M94.89 78.737c-.034 4.4 9.066 5.333 9.066 5.333l2.324.37 1.041.165.434-4.295s-.477-.072-1.074-.21c-.88-.206-2.021-.56-2.26-1.057-.4-.833-9.5-4.704-9.532-.306z"/>
        <path fill="#000" fill-rule="nonzero" d="M108.82 50.287c.21.015.407.103.56.249.257.273.27.757.605.925.125.055.264.07.398.046.886-.126 1.4-1.12 2.25-1.4.484-.156 1.018-.054 1.49.128.191.06.362.17.495.318.28.368.085.91.217 1.356.183.619.923.865 1.562.947.64.08 1.361.126 1.788.609.303.343.38.84.318 1.289a1.02 1.02 0 0 0 0 .477c.176.5 1.042.42 1.267.031.165-.287.115-.525.504-.605.263-.054.573.056.816.14a5.98 5.98 0 0 0 2.111.325 7.634 7.634 0 1 0-14.382-4.835z" opacity=".1"/>
        <path fill="#434175" fill-rule="nonzero" d="M118.499 55.03a1.02 1.02 0 0 1 0-.478c.06-.452-.016-.947-.318-1.289-.42-.483-1.148-.53-1.788-.609-.64-.08-1.379-.326-1.562-.945-.132-.447.067-.99-.217-1.358a1.092 1.092 0 0 0-.493-.316c-.475-.184-1.008-.28-1.492-.13-.85.28-1.364 1.278-2.25 1.4a.689.689 0 0 1-.398-.045c-.334-.168-.348-.653-.606-.924-.405-.429-1.173-.153-1.669-.47-.323-.21-.448-.614-.537-.988-.177-.725-.318-1.485-.149-2.21.29-1.24 1.4-2.09 2.1-3.149.66-.987 1.03-2.24 2.02-2.89.992-.65 2.264-.505 3.381-.173.524.155 1.042.348 1.584.42.901.11 1.806-.14 2.713-.165a5.827 5.827 0 0 1 3.583 1.087c.234.154.434.356.585.593.18.319.204.7.259 1.06.106.69.343 1.352.7 1.951.28.469.631.895.885 1.379.253.484.401 1.057.239 1.578-.085.28-.255.522-.318.803-.148.651.28 1.273.573 1.874.283.547.417 1.16.389 1.776a2.24 2.24 0 0 1-.798 1.598c-.472.37-1.092.492-1.69.512a5.99 5.99 0 0 1-2.153-.323c-.245-.084-.56-.195-.816-.14-.39.08-.339.317-.504.604-.213.392-1.077.467-1.253-.033z"/>
        <path fill="#000" fill-rule="nonzero" d="M114.387 98.07l4.3-3.36 6.767-6.667s-.91-.045-2.24-.1c-.242.246-.458.56-.472.91-.033.814-1.83.057-2.762.523-.932.466-5.5 6.31-6.3 6.272-.8-.038-1.432-.406-1.767.161a.344.344 0 0 1-.024.038.948.948 0 0 1-.508.3l3.006 1.923z" opacity=".1"/>
        <path fill="#434175" fill-rule="nonzero" d="M105.721 97.836l2.16 6.897.339 1.083 1.029-.28 2.268-.623 10.102-2.775s1.899-.025 3.64-.97c1.925-1.047 4.097-1.573 6.278-1.369 1.336.125 2.821-.45 4.06-2.727 0 0 2.8-8.26-4.267-10.64-7.067-2.38-7.403 1.26-7.403 1.26s-.037.02-.096.059c-.28.175-1.043.725-1.07 1.4-.034.814-1.83.056-2.763.522-.932.466-5.499 6.311-6.3 6.273-.8-.038-1.432-.406-1.767.161 0 .013-.015.024-.023.037-.247.34-.989.42-1.48.432-.268.009-.462 0-.462 0l-.063.02-.524.145-3.658 1.095z"/>
        <path fill="#000" fill-rule="nonzero" d="M106.28 84.44l1.041.165.434-4.295s-.477-.072-1.074-.21c.159.595-.2 2.914-.401 4.34z" opacity=".1"/>
        <path fill="#000" fill-rule="nonzero" d="M133.535 64.35s3.1-.9 2.332 7.9c-.767 8.8-6.499 14.36-6.499 14.36s-6.6 2.899-9.566 2.433c-2.966-.466-5.132-.56-5.132-.56a7.53 7.53 0 0 0-3-.8c-1.668-.067-5.166-1.1-5.234-1.433-.067-.333.867-5.233.467-5.6 0 0 4.666.192 5.133.529.468.337 1.133.095 1.633 0s2.034-1.43 5.066-.262c0 0 1.034.1 1.434-.166.4-.266 1.042-.068 1.042-.068s.628-.233.725-.373c.096-.14.899 0 .899 0a.356.356 0 0 0 .5-.234c.106-.273.264-.522.467-.732 0 0 .9-5.067 2.6-6.967 0 0 .5-.434.367-.967-.133-.534 2.77-8.129 6.766-7.06z" opacity=".1"/>
        <path fill="#142D4E" fill-rule="nonzero" d="M133.46 63.672s3.099-.9 2.333 7.9-6.507 14.366-6.507 14.366-6.6 2.899-9.566 2.433c-2.967-.466-5.133-.567-5.133-.567a7.52 7.52 0 0 0-3-.8c-1.666-.067-5.166-1.1-5.233-1.433-.067-.333.866-5.233.467-5.6 0 0 4.667.192 5.133.529.466.337 1.134.095 1.634 0s2.032-1.428 5.066-.262c0 0 1.033.1 1.432-.166.4-.266 1.043-.068 1.043-.068s.625-.233.724-.366c.1-.133.9 0 .9 0a.354.354 0 0 0 .5-.233c.105-.273.263-.523.466-.733 0 0 .9-5.067 2.6-6.967 0 0 .5-.434.367-.966s2.766-8.134 6.773-7.067z"/>
        <path fill="#000" fill-rule="nonzero" d="M109.38 96.741l4.4 5.32c.018-.015.029-.026.029-.03.033-.101.466-1.234.367-1.301-.1-.067-.867-1.733-2.4-2.433-.937-.42-1.55-1.189-1.884-1.715l-.513.16z" opacity=".1"/>
        <path fill="#000" fill-rule="nonzero" d="M109.44 105.959l.481.28s1.12-.896 2.227-1.798c1.108-.901 2.189-1.785 2.207-1.835.032-.1.465-1.233.365-1.3-.052-.034-.28-.496-.7-1.031-2.985-.84-1.085 1.236-.831 1.331 0 0-3.64-.84-3.834 3.124a4.67 4.67 0 0 0 .084 1.229z" opacity=".1"/>
        <path fill="#565387" fill-rule="nonzero" d="M113.12 107.636l.634.367 6.44.167s1.38.84 2.277 1.094c.105.033.213.057.323.072.596.048 1.195.06 1.792.033.493-.012.875-.033.875-.033s-.305-8.12-.535-8.96c-.109-.409-.648-.32-1.18-.115-.4.162-.785.357-1.152.584 0 0-2.733.264-3.167.5-.434.235-1.666-.14-2.433 0-.767.14-2.132-.903-2.132-.903-3.734-1.232-1.634 1.066-1.368 1.167 0 0-3.632-.84-3.832 3.124-.2 3.963 3.458 2.903 3.458 2.903z"/>
        <path fill="#565387" fill-rule="nonzero" d="M122.42 104.503c.07 1.68 1.38 3.765 2.159 4.866.493-.012.875-.033.875-.033s-.305-8.12-.535-8.96c-.109-.409-.648-.32-1.18-.115-.64 1.204-1.375 2.888-1.319 4.242z"/>
        <path fill="#000" fill-rule="nonzero" d="M122.42 104.503c.07 1.68 1.38 3.765 2.159 4.866.493-.012.875-.033.875-.033s-.305-8.12-.535-8.96c-.109-.409-.648-.32-1.18-.115-.64 1.204-1.375 2.888-1.319 4.242z" opacity=".1"/>
        <path fill="#000" fill-rule="nonzero" d="M121.32 104.726c.442 1.62.438 3.44 1.144 4.538.105.033.213.057.323.072.596.048 1.195.06 1.792.033.493-.012.875-.033.875-.033s-.305-8.12-.535-8.96c-.109-.409-.648-.32-1.18-.115-.4.162-.785.357-1.152.584 0 0-1.833 1.806-1.267 3.88z" opacity=".05"/>
        <path fill="#000" fill-rule="nonzero" d="M99.127 88.281s3.195 1.038 5.902 4.722l-5.902-4.722z" opacity=".1"/>
        <g fill="#000" fill-rule="nonzero" opacity=".1">
            <path d="M125.091 48.286a2.09 2.09 0 0 1 0 0zM107.015 46.669c.055-.234.138-.46.247-.673-.016.057-.035.114-.049.173-.169.725-.028 1.486.149 2.21.09.375.214.78.537.988.497.318 1.26.04 1.67.469.257.273.27.757.607.925.125.055.263.07.397.046.885-.126 1.4-1.12 2.25-1.4.485-.156 1.017-.054 1.491.13.19.058.36.167.493.316.28.368.085.911.217 1.356.183.619.923.865 1.562.945.64.08 1.361.126 1.788.61.303.342.38.84.318 1.29-.037.157-.037.32 0 .477.176.5 1.042.42 1.26.031.165-.287.116-.525.505-.605.262-.054.572.056.815.14a5.99 5.99 0 0 0 2.153.324c.598-.021 1.22-.14 1.69-.513a1.96 1.96 0 0 0 .518-.63 2.12 2.12 0 0 1-.714 1.132c-.47.37-1.09.492-1.69.512a5.977 5.977 0 0 1-2.151-.323c-.245-.084-.56-.195-.817-.14-.389.08-.34.317-.504.604-.226.395-1.09.47-1.268-.03a1.039 1.039 0 0 1 0-.478c.062-.452-.014-.948-.316-1.29-.429-.482-1.15-.528-1.79-.608-.64-.08-1.379-.326-1.56-.945-.134-.447.067-.99-.218-1.358a1.103 1.103 0 0 0-.494-.317c-.474-.183-1.006-.28-1.49-.128-.852.28-1.366 1.276-2.25 1.4a.687.687 0 0 1-.398-.047c-.336-.168-.35-.652-.608-.924-.404-.428-1.172-.152-1.667-.47-.325-.209-.448-.613-.54-.987-.173-.727-.314-1.487-.143-2.212z"/>
        </g>
        <path fill="#000" fill-rule="nonzero" d="M125.608 73.346c-.61.825-1.308 1.588-1.848 2.46-.54.872-.923 1.89-.81 2.909.56-.574.816-1.366 1.168-2.086.597-1.218 1.49-2.251 2.24-3.371.14-.214 1.066-1.45.6-1.508-.384-.049-1.141 1.315-1.35 1.596z" opacity=".1"/>
    </g>
</svg>
